<svg id="Layer_1" data-name="Layer 1" xmlns="http://www.w3.org/2000/svg" viewBox="0 0 501 380"><defs><style>.cls-1,.cls-2{fill:#fff;}.cls-2{fill-rule:evenodd;}.cls-3,.cls-4{fill:none;stroke:#fff;}.cls-3{stroke-linecap:round;stroke-width:10px;}.cls-4{stroke-miterlimit:10;stroke-width:35px;}</style></defs><path id="Rounded_Rectangle_2" data-name="Rounded Rectangle 2" class="cls-1" d="M448.5,138.79h38a20,20,0,0,1,20,20v36a20,20,0,0,1-20,20h-38v-76Z" transform="translate(-5.5 -4.79)"/><path id="Rounded_Rectangle_2_copy" data-name="Rounded Rectangle 2 copy" class="cls-1" d="M25.5,138.79h42v76h-42a20,20,0,0,1-20-20v-36A20,20,0,0,1,25.5,138.79Z" transform="translate(-5.5 -4.79)"/><path id="Rounded_Rectangle_2_copy_2" data-name="Rounded Rectangle 2 copy 2" class="cls-1" d="M236.5,4.79h36a20,20,0,0,1,20,20v1h-76v-1A20,20,0,0,1,236.5,4.79Z" transform="translate(-5.5 -4.79)"/><path class="cls-2" d="M312.5,325.79l-93,59,18-65Z" transform="translate(-5.5 -4.79)"/><circle class="cls-1" cx="159.5" cy="140.5" r="16.5"/><circle id="Ellipse_1_copy" data-name="Ellipse 1 copy" class="cls-1" cx="340.5" cy="140.5" r="16.5"/><path class="cls-3" d="M227.32,224.3s19,24.64,55-1.05" transform="translate(-5.5 -4.79)"/><path id="Rounded_Rectangle_1_copy" data-name="Rounded Rectangle 1 copy" class="cls-4" d="M190.52,43.06h128a133.73,133.73,0,0,1,0,267.46h-128a133.73,133.73,0,0,1,0-267.46Z" transform="translate(-5.5 -4.79)"/></svg>