<svg width="64" height="64" viewBox="0 0 64 64" fill="none" xmlns="http://www.w3.org/2000/svg">
  <rect width="64" height="64" rx="12" fill="#EF4444"/>
  <!-- Rock (fist) -->
  <circle cx="20" cy="32" r="8" fill="white" opacity="0.9"/>
  <circle cx="18" cy="30" r="2" fill="#EF4444"/>
  <circle cx="22" cy="30" r="2" fill="#EF4444"/>
  <circle cx="18" cy="34" r="2" fill="#EF4444"/>
  <circle cx="22" cy="34" r="2" fill="#EF4444"/>
  
  <!-- Paper (hand) -->
  <rect x="36" y="20" width="12" height="16" rx="6" fill="white" opacity="0.9"/>
  <rect x="38" y="18" width="2" height="8" rx="1" fill="white" opacity="0.9"/>
  <rect x="41" y="16" width="2" height="10" rx="1" fill="white" opacity="0.9"/>
  <rect x="44" y="18" width="2" height="8" rx="1" fill="white" opacity="0.9"/>
  <rect x="47" y="20" width="2" height="6" rx="1" fill="white" opacity="0.9"/>
  
  <!-- Scissors -->
  <path d="M28 44L32 48L36 44" stroke="white" stroke-width="3" stroke-linecap="round" stroke-linejoin="round" fill="none"/>
  <path d="M28 52L32 48L36 52" stroke="white" stroke-width="3" stroke-linecap="round" stroke-linejoin="round" fill="none"/>
  <circle cx="28" cy="46" r="2" fill="white"/>
  <circle cx="36" cy="46" r="2" fill="white"/>
  
  <!-- VS text -->
  <text x="32" y="14" text-anchor="middle" fill="white" font-family="Arial, sans-serif" font-size="8" font-weight="bold">VS</text>
</svg>